:SAMPLES-PER-SECOND 30
:FULLY-SPECIFIED
:DEGREES
432
root  -6.45338 40.849 -1.46923 -2.5874 -70.337 5.65594
RightUpLeg  5.33844 -2.47789 -0.0364546
RightLeg  -6.39897 -40.2775 5.18773
RightFoot  -2.16194 -0.171432 1.87067
RightToes  -3.11842e-008 1.75238e-005 3.56266e-009
Spine  1.87021 6.02369 9.72578
Spine1  -6.43449 8.21662 -18.7792
HEad  1.35996 -1.76051 -4.57575
LeftShoulder1  1.02448 -0.528331 -18.8613
LeftArm  -39.1676 -8.01551 -40.7007
LeftForeArm  134.987 -49.5754 -165.783
LeftHand  0.844146 -7.47224 -7.25025
RightShoulder  1.89911 4.47766 17.2164
RightArm  -35.2051 25.2799 28.1385
RightForeArm  118.01 51.7757 163.748
RightHand  0.693741 8.79626 5.25554
LeftUpLeg  -0.0508077 0.514093 3.6953
LeftLeg  -4.22472 -4.22521 0.457806
LeftFoot  2.18325 0.629333 -5.41815
LeftToes  4.78904e-008 1.4679e-008 1.35657e-009
433
root  -6.41682 40.8505 -1.52119 -1.71075 -70.0402 5.05835
RightUpLeg  5.04611 -2.24875 0.276014
RightLeg  -6.67175 -40.6908 5.39181
RightFoot  -2.00614 -0.165855 1.79819
RightToes  -3.11842e-008 1.75238e-005 3.56266e-009
Spine  2.32988 6.0065 10.1454
Spine1  -7.98636 8.00055 -19.4278
HEad  3.6315 -1.99173 -3.98233
LeftShoulder1  1.03345 -0.745744 -17.6813
LeftArm  -41.785 -14.5667 -38.8414
LeftForeArm  131.585 -53.1068 -163.84
LeftHand  0.528433 -6.99854 -4.56956
RightShoulder  1.80923 4.62239 15.5331
RightArm  -39.6468 28.9134 27.9566
RightForeArm  115.049 54.9008 161.819
RightHand  0.426517 8.27458 3.23656
LeftUpLeg  -0.619248 0.614844 3.93219
LeftLeg  -4.04752 -4.4778 0.435597
LeftFoot  2.21775 0.631233 -5.42146
LeftToes  4.78904e-008 1.4679e-008 1.35657e-009
434
root  -6.38022 40.851 -1.5511 -1.58612 -70.1363 4.89282
RightUpLeg  5.03393 -2.21564 0.343403
RightLeg  -6.7383 -40.5994 5.48144
RightFoot  -2.03124 -0.163436 1.77242
RightToes  -3.11842e-008 1.75238e-005 3.56266e-009
Spine  2.62496 6.05236 10.3388
Spine1  -8.55573 7.99937 -19.8443
HEad  4.33349 -2.21477 -3.71214
LeftShoulder1  1.08597 -1.07089 -17.0465
LeftArm  -44.0512 -19.9824 -37.2558
LeftForeArm  129.979 -56.3405 -161.869
LeftHand  0.30079 -5.51 -2.911
RightShoulder  1.70531 4.59726 14.2006
RightArm  -42.8818 31.3655 28.0421
RightForeArm  112.431 57.5331 159.932
RightHand  0.12346 7.98016 0.689318
LeftUpLeg  -0.620551 0.612979 3.99819
LeftLeg  -4.08619 -4.39524 0.514696
LeftFoot  2.25582 0.648056 -5.54844
LeftToes  4.78904e-008 1.4679e-008 1.35657e-009
435
root  -6.34102 40.8503 -1.5733 -1.94843 -70.3692 5.01501
RightUpLeg  5.12759 -2.26853 0.295308
RightLeg  -6.46745 -40.2973 5.28916
RightFoot  -2.07658 -0.16304 1.77522
RightToes  -3.11842e-008 1.75238e-005 3.56266e-009
Spine  3.02546 5.86653 10.3909
Spine1  -8.82041 7.85297 -20.3047
HEad  4.03867 -2.25834 -2.86494
LeftShoulder1  1.07302 -1.10824 -16.5343
LeftArm  -45.1456 -23.7658 -36.6985
LeftForeArm  130.726 -58.4849 -160.494
LeftHand  0.235744 -3.98788 -2.732
RightShoulder  1.65702 4.44839 13.965
RightArm  -44.3926 32.8711 28.5362
RightForeArm  110.365 59.156 158.589
RightHand  -0.130045 7.71255 -1.5154
LeftUpLeg  -0.327018 0.549677 3.95124
LeftLeg  -4.18508 -4.07345 0.604125
LeftFoot  2.22319 0.681406 -5.84335
LeftToes  4.78904e-008 1.4679e-008 1.35657e-009
436
root  -6.30262 40.857 -1.56365 -2.40283 -70.8607 5.11792
RightUpLeg  5.37853 -2.31248 0.205198
RightLeg  -6.25022 -39.643 5.08737
RightFoot  -2.08439 -0.155511 1.66402
RightToes  -3.11842e-008 1.75238e-005 3.56266e-009
Spine  2.89371 5.70363 10.1377
Spine1  -8.13909 7.79775 -20.0556
HEad  3.20944 -2.61702 -2.1411
LeftShoulder1  1.14657 -1.33233 -17.0232
LeftArm  -45.1226 -25.1384 -36.4337
LeftForeArm  131.986 -59.1597 -160.102
LeftHand  -0.00104314 -4.77341 0.332115
RightShoulder  1.62505 4.27392 14.0218
RightArm  -44.1177 32.7633 29.732
RightForeArm  110.412 59.6911 158.156
RightHand  -0.270248 7.87173 -2.73589
LeftUpLeg  0.0222087 0.472356 3.89672
LeftLeg  -4.02708 -3.47297 0.683802
LeftFoot  1.8295 0.766518 -6.73176
LeftToes  4.78904e-008 1.4679e-008 1.35657e-009
437
root  -6.25029 40.8612 -1.50539 -2.87531 -71.8382 5.07245
RightUpLeg  5.53445 -2.44296 0.0518429
RightLeg  -5.42483 -38.4428 4.50938
RightFoot  -2.16148 -0.155912 1.67203
RightToes  -3.11842e-008 1.75238e-005 3.56266e-009
Spine  2.20103 5.44528 9.44082
Spine1  -6.62262 7.63578 -18.7501
HEad  2.20959 -1.3384 -1.77612
LeftShoulder1  1.15362 -1.25433 -17.6059
LeftArm  -43.0868 -22.9542 -37.8982
LeftForeArm  132.128 -57.7898 -161.068
LeftHand  0.0246829 -5.47424 0.0792752
RightShoulder  1.74638 4.53337 14.9537
RightArm  -41.5538 31.1324 31.2885
RightForeArm  111.494 59.0623 158.722
RightHand  -0.37984 7.83204 -3.70007
LeftUpLeg  0.635019 0.393172 3.81045
LeftLeg  -3.85258 -2.36952 0.772219
LeftFoot  1.37814 0.776733 -7.03796
LeftToes  4.78904e-008 1.4679e-008 1.35657e-009
438
root  -6.20983 40.8664 -1.40577 -3.76953 -73.3669 5.19122
RightUpLeg  5.94863 -2.59616 -0.193815
RightLeg  -4.54944 -36.767 3.82992
RightFoot  -2.21972 -0.173218 1.93797
RightToes  -3.11842e-008 1.75238e-005 3.56266e-009
Spine  0.752112 5.23746 7.9133
Spine1  -3.68727 7.50204 -15.9691
HEad  0.916378 -0.420457 -2.20715
LeftShoulder1  1.19927 -1.22031 -18.8352
LeftArm  -39.9747 -17.9482 -40.4058
LeftForeArm  136.701 -54.8314 -163.218
LeftHand  0.222185 -7.70603 -1.60791
RightShoulder  1.78466 4.48953 15.5968
RightArm  -36.6331 28.0566 34.3925
RightForeArm  113.71 57.4426 160.062
RightHand  -0.323543 8.42128 -3.09598
LeftUpLeg  1.52688 0.448105 3.69614
LeftLeg  -3.39577 -0.923399 0.740699
LeftFoot  0.946929 0.738515 -6.9093
LeftToes  4.78904e-008 1.4679e-008 1.35657e-009
439
root  -6.21463 40.8716 -1.2687 -4.47241 -75.5801 5.09869
RightUpLeg  6.52391 -2.66055 -0.376097
RightLeg  -4.02381 -34.479 3.33817
RightFoot  -2.20646 -0.185249 2.11721
RightToes  -3.11842e-008 1.75238e-005 3.56266e-009
Spine  -0.358276 4.86592 6.57465
Spine1  -1.48514 7.07124 -13.6291
HEad  -0.299396 -0.953833 -1.85486
LeftShoulder1  1.34848 -1.53503 -20.2953
LeftArm  -34.98 -9.714 -42.3432
LeftForeArm  140.903 -50.5095 -165.727
LeftHand  0.67889 -8.92563 -5.08252
RightShoulder  2.03881 4.87965 17.7757
RightArm  -30.103 22.7458 36.3791
RightForeArm  115.266 55.0056 161.759
RightHand  -0.0769192 8.48239 -1.00138
LeftUpLeg  2.76582 0.885032 3.83465
LeftLeg  -3.2313 0.693096 0.436089
LeftFoot  0.532618 0.662913 -6.40405
LeftToes  4.78904e-008 1.4679e-008 1.35657e-009
440
root  -6.23111 40.8741 -1.11348 -4.79901 -78.2572 4.67664
RightUpLeg  7.17355 -2.67159 -0.516795
RightLeg  -3.92529 -31.8163 3.14969
RightFoot  -2.10418 -0.187407 2.1379
RightToes  -3.11842e-008 1.75238e-005 3.56266e-009
Spine  -0.866019 4.4391 5.92555
Spine1  -0.0970724 6.58083 -12.3497
HEad  -1.51286 -1.94959 -0.656097
LeftShoulder1  1.64437 -2.32469 -21.8596
LeftArm  -28.0123 -1.43565 -43.2681
LeftForeArm  143.892 -46.7497 -167.523
LeftHand  1.00995 -10.039 -7.18713
RightShoulder  2.32841 5.05065 20.9128
RightArm  -23.3143 16.1573 36.4729
RightForeArm  119.498 52.2665 163.578
RightHand  0.267144 8.53899 1.81326
LeftUpLeg  4.26737 1.31859 3.98081
LeftLeg  -3.49459 2.75169 0.187176
LeftFoot  0.403 0.541387 -5.28716
LeftToes  4.78904e-008 1.4679e-008 1.35657e-009
441
root  -6.22795 40.8752 -0.956144 -4.87317 -81.0263 4.34796
RightUpLeg  7.37724 -2.57305 -0.626625
RightLeg  -3.81669 -29.2413 2.89669
RightFoot  -1.9781 -0.188887 2.14218
RightToes  -3.11842e-008 1.75238e-005 3.56266e-009
Spine  -2.26979 3.8161 4.69325
Spine1  2.10368 5.721 -10.0184
HEad  -3.33082 -2.10331 0.212356
LeftShoulder1  1.89332 -2.94778 -23.0846
LeftArm  -23.3299 2.49133 -43.6386
LeftForeArm  149.245 -45.1967 -168.43
LeftHand  1.2678 -9.81354 -9.21462
RightShoulder  2.4368 5.0788 22.1693
RightArm  -18.6518 11.2081 35.6306
RightForeArm  127.621 50.5866 164.873
RightHand  0.539952 9.55183 3.7818
LeftUpLeg  5.10951 1.62194 4.06814
LeftLeg  -3.27652 5.09247 -0.01658
LeftFoot  -0.0870658 0.521221 -5.28489
LeftToes  4.78904e-008 1.4679e-008 1.35657e-009
442
root  -6.21437 40.8788 -0.792808 -5.38312 -83.838 4.36145
RightUpLeg  7.54035 -2.44919 -0.779027
RightLeg  -3.49483 -26.6322 2.42102
RightFoot  -1.84048 -0.197075 2.21866
RightToes  -3.11842e-008 1.75238e-005 3.56266e-009
Spine  -3.33594 2.8445 2.93153
Spine1  3.77657 4.32804 -7.16525
HEad  -5.11078 -2.28855 1.33068
LeftShoulder1  1.93768 -3.16409 -22.7591
LeftArm  -22.4403 0.59788 -43.7892
LeftForeArm  153.239 -45.8712 -168.424
LeftHand  1.31947 -10.1749 -9.38117
RightShoulder  2.4078 4.89781 22.4557
RightArm  -17.6763 10.0773 34.1551
RightForeArm  132.037 49.7897 165.501
RightHand  0.985171 9.79017 7.0853
LeftUpLeg  6.14053 1.84304 4.01319
LeftLeg  -3.26571 7.52333 -0.207341
LeftFoot  -0.42908 0.508373 -5.29349
LeftToes  4.78904e-008 1.4679e-008 1.35657e-009
